<svg viewBox="0 0 49.8257 24" xmlns="http://www.w3.org/2000/svg"><g fill="#ed1c24"><path d="m33.784.076h-4.775l-.869 4.196h4.775z"/><path d="m27.671 6.453-3.719 17.547h4.775l3.726-17.547z"/><path d="m22.907.076-5.095 23.924h4.709l5.095-23.924z"/><path d="m20.2405 6.4532h-3.09c.1427-.6608.2111-.9277.3075-1.2756a1.7288 1.7288 0 0 1 1.9248-1.3428h1.3213l.8109-3.7591s-1.5338-.0757-1.8312-.0757c-2.7538 0-5.9847.0757-7.0788 5.5411l-.1983.9121h-2.5751l-.7334 3.4532h2.627l-2.9974 14.0936h4.6922l2.9975-14.0936h3.09z"/><path d="m9.832.076h-4.775l-.869 4.196h4.775z"/><path d="m0 24h4.775l3.726-17.547h-4.782z"/><path d="m39.082 20.718 1.194 3.282h5.766l-3.335-7.386z"/><path d="m44.225 6.453-4.048 5.221-1.958-5.221h-5.766l4.031 8.801-7.757 8.746h5.601l15.498-17.547z"/></g></svg>