<svg width="104" height="72" viewBox="0 0 104 72" fill="none" xmlns="http://www.w3.org/2000/svg">
<path fill-rule="evenodd" clip-rule="evenodd" d="M43.243 21.5904L44.6501 14.9817H38.723C38.9968 13.7169 39.128 13.2061 39.3129 12.5404C39.9618 10.2013 41.6715 9.97033 43.0053 9.97033H45.54L47.0948 2.77616C47.0948 2.77616 44.1525 2.63127 43.5819 2.63127C38.2994 2.63127 32.1012 2.77616 30.0023 13.2359L29.6219 14.9816H24.6818L23.275 21.5904H28.3146L22.5645 48.5631H31.566L37.316 21.5904H43.243ZM70.6305 2.77619H61.4704L59.8047 10.8078H68.9647L70.6305 2.77619ZM58.9039 14.9816L51.77 48.5632H60.93H71.6747L101.405 14.9816H90.6602L82.8947 24.9737L79.139 14.9816H68.0771H58.9039ZM68.0771 14.9816L60.93 48.5632L75.8108 31.8254L68.0771 14.9816ZM39.9908 48.5632L49.766 2.77619H58.7993L49.0239 48.5632H39.9908ZM15.5221 2.77619H24.6818L23.0163 10.8078H13.8563L15.5221 2.77619ZM22.1287 14.9816H12.9555L5.82158 48.5632H14.9813L22.1287 14.9816ZM83.0849 48.5632H94.1465L87.7494 34.4272L80.7942 42.283L83.0849 48.5632ZM8.14278 67.9457H5.70801V58.0083H10.1473V59.64H8.14278V61.9097H9.95039V63.6025H8.14278V67.9457ZM17.5866 60.6339C17.5866 58.4869 16.1724 58.0084 14.1681 58.0084H11.2045V67.9456H13.6393V63.5535H14.1435L15.1764 67.9456H17.7219L16.3691 63.1856C17.3776 62.6702 17.5866 61.8728 17.5866 60.6339ZM14.2788 62.2165H13.6393V59.6156H14.3894C15.1027 59.6156 15.3362 60.1309 15.3362 60.8915C15.3362 61.6521 15.1272 62.2165 14.2788 62.2165ZM22.9724 63.5534H21.3122V66.3262H23.5503V67.9457H18.8774V58.0083H23.538V59.64H21.3122V61.8606H22.9724V63.5534ZM26.9563 63.5534H28.6162V61.8606H26.9563V59.64H29.1821V58.0083H24.5215V67.9457H29.1944V66.3262H26.9563V63.5534ZM34.26 59.8119H32.8091V58.0083H38.146V59.8119H36.7071V67.9457H34.26V59.8119ZM41.5151 64.5843L40.5805 58.0083H38.539L40.2113 67.9457H42.8555L44.5647 58.0083H42.3635L41.5151 64.5843ZM46.0032 67.9456H45.4743L45.4744 66.6084H46.4704V67.8475C46.4704 68.6571 46.2245 69.0618 45.6096 69.3688L45.413 68.976C45.6047 68.8846 45.764 68.7369 45.8695 68.5528C45.9749 68.3687 46.0216 68.1569 46.0032 67.9456ZM53.3685 63.063L51.6101 61.4068C51.0935 60.916 50.9091 60.499 50.9091 59.9591C50.9091 59.0636 51.4869 58.6464 52.3111 58.6464C53.4546 58.6464 53.7988 59.3825 53.8974 60.6339L54.6967 60.4252C54.5612 58.5972 53.7496 57.9103 52.3111 57.9103C50.9583 57.9103 50.0607 58.6709 50.0607 60.045C50.0559 60.4245 50.1349 60.8004 50.2922 61.146C50.4494 61.4915 50.6811 61.7983 50.9706 62.0445L52.729 63.7255C53.4792 64.4371 53.9466 64.9889 53.9466 65.8722C53.9466 66.8784 53.43 67.3076 52.5446 67.3076C51.3271 67.3076 51.0075 66.3507 50.8723 65.1238L50.0484 65.3694C50.159 66.9888 50.9091 68.0682 52.5324 68.0682C53.8726 68.0682 54.8196 67.2954 54.8196 65.8109C54.8196 64.6823 54.1432 63.7991 53.3685 63.063ZM59.1725 63.1488H57.0079V67.2463H59.6888V67.9457H56.0613V58.0083H59.6642V58.7322H57.0079V62.4617H59.1725V63.1488ZM65.6895 60.5358C65.6895 58.9655 65.0746 58.0084 63.2178 58.0084H60.9674V67.9456H61.9019V63.063H63.4637L64.927 67.9456H65.837L64.3121 62.8667C65.3944 62.6334 65.6895 61.6643 65.6895 60.5358ZM63.1686 62.3759H61.9019V58.7077H63.1932C64.4599 58.7077 64.7795 59.3089 64.7795 60.5358C64.7795 61.7627 64.3982 62.3759 63.1686 62.3759ZM67.2878 58.0084H68.2223V67.9456H67.2878V58.0084ZM72.3538 57.9103C70.411 57.9103 69.7838 59.0881 69.7838 60.8914V65.0133C69.7838 66.8169 70.374 68.0681 72.3538 68.0681C74.3091 68.0681 74.8994 66.8169 74.8994 65.0256V60.8914C74.8992 59.1004 74.2723 57.9103 72.3538 57.9103ZM73.9524 65.2222C73.9524 66.4734 73.6574 67.3199 72.3538 67.3199C71.0257 67.3199 70.7306 66.4734 70.7306 65.2222V60.7198C70.7306 59.4561 71.0257 58.6586 72.3538 58.6586C73.6573 58.6586 73.9524 59.4561 73.9524 60.7198V65.2222ZM78.8832 67.3199C80.1622 67.3199 80.5187 66.4243 80.5187 65.259L80.5188 58.0084H81.4165V65.2345C81.4165 66.8905 80.851 68.0682 78.8833 68.0682C76.8421 68.0682 76.3378 66.8906 76.3378 65.2345V58.0084H77.2477V65.259C77.2477 66.4243 77.543 67.3199 78.8832 67.3199ZM86.0028 63.063L84.2444 61.4068C83.7278 60.916 83.5434 60.499 83.5434 59.9591C83.5434 59.0636 84.1211 58.6464 84.9453 58.6464C86.0888 58.6464 86.433 59.3825 86.5316 60.6339L87.3309 60.4252C87.1954 58.5972 86.3838 57.9103 84.9453 57.9103C83.5926 57.9103 82.6949 58.6709 82.6949 60.045C82.6901 60.4245 82.7692 60.8004 82.9264 61.146C83.0837 61.4915 83.3153 61.7983 83.6048 62.0445L85.3633 63.7255C86.1134 64.4371 86.5808 64.9889 86.5808 65.8722C86.5808 66.8784 86.0642 67.3076 85.1789 67.3076C83.9613 67.3076 83.6417 66.3507 83.5065 65.1238L82.6826 65.3694C82.7933 66.9888 83.5434 68.0682 85.1666 68.0682C86.5071 68.0682 87.4539 67.2954 87.4539 65.8109C87.4538 64.6823 86.7774 63.7991 86.0028 63.063ZM88.7077 58.0083H89.642V67.2463H92.4707V67.9457H88.7077V58.0083ZM94.61 63.5289L92.8144 58.0083H91.9045L94.1549 64.6454V67.9457H95.0649V64.6454L97.2538 58.0083H96.3318L94.61 63.5289ZM97.8316 66.596H98.7785V67.9456H97.8316V66.596Z" fill="#A4A4A6"/>
</svg>
